PathFileType	4	(X/Y/Z)	/Users/niels/Desktop/University/Third Semester/Perception and Action/Exam/Gymnastics Motion Tracking/Code for Gym Tracking/Analyzed Data/Webcam_Backflip/id9_2_trajectory_Sports2D/id9_2_trajectory_Sports2D_px_person00.trc
DataRate	CameraRate	NumFrames	NumMarkers	Units	OrigDataRate	OrigDataStartFrame	OrigNumFrames
29.714285714285715	29.714285714285715	10	22	m	29.714285714285715	0	105
Frame#	Time	Hip			RHip			RKnee			RAnkle			RBigToe			RSmallToe			RHeel			LHip			LKnee			LAnkle			LBigToe			LSmallToe			LHeel			Neck			Head			Nose			RShoulder			RElbow			RWrist			LShoulder			LElbow			LWrist		
		X1	Y1	Z1	X2	Y2	Z2	X3	Y3	Z3	X4	Y4	Z4	X5	Y5	Z5	X6	Y6	Z6	X7	Y7	Z7	X8	Y8	Z8	X9	Y9	Z9	X10	Y10	Z10	X11	Y11	Z11	X12	Y12	Z12	X13	Y13	Z13	X14	Y14	Z14	X15	Y15	Z15	X16	Y16	Z16	X17	Y17	Z17	X18	Y18	Z18	X19	Y19	Z19	X20	Y20	Z20	X21	Y21	Z21	X22	Y22	Z22
0	0.0	0.9193300778560166	-0.5519223195356103	0.0	0.9167670768619154	-0.5519156302381856	0.0	0.9141830082277789	-0.7779944082843604	0.0	0.8781467998963347	-0.991216132478672	0.0	0.970651219613596	-1.0220644728800616	0.0	0.9475543464792808	-1.0323408893727763	0.0	0.8550231360223409	-1.0220433023725766	0.0	0.9296231587686911	-0.5570561273925279	0.0	0.9116417515481603	-0.7728671055802872	0.0	0.878212724096749	-0.9706847324047011	0.0	0.9706975840260891	-0.998960770589543	0.0	0.9552841314079886	-1.0015206532661183	0.0	0.8422379342398487	-0.9989473762426239	0.0	0.9398999954691298	-0.2564690869836545	0.0	0.9578825096155522	-0.12287549184263571	0.0	0.9861421065470273	-0.1948182833108062	0.0	0.9373443907676935	-0.2641716252925218	0.0	1.0272268663873552	-0.1538425968893387	0.0	1.047803504692537	-0.05636195466525816	0.0	0.9218619365314095	-0.27701667889219733	0.0	0.9861381952119664	-0.1743644666915851	0.0	1.0375322851432245	-0.08973065337881873	0.0
1	0.03365384615384615	0.9230818395201326	-0.5539577691798957	0.0	0.9182991959652661	-0.5538511482518109	0.0	0.91760165232541	-0.7764916502163473	0.0	0.8784555472331009	-0.9872750852928731	0.0	0.9692293270337441	-1.0199531098661152	0.0	0.9472378354103317	-1.030546656898647	0.0	0.854616591262356	-1.0172719545465256	0.0	0.9349001403482485	-0.5576580135921736	0.0	0.9319358146685167	-0.7711232047215324	0.0	0.8827264543708273	-0.9641020235176282	0.0	0.9718192262365636	-0.9961246840996457	0.0	0.9592782306970808	-0.9971797422669956	0.0	0.8452667401777872	-0.9925460464547261	0.0	0.9428350613728794	-0.258935058316518	0.0	0.9628048305095289	-0.12525304495990935	0.0	0.9900053206325221	-0.19769187453920434	0.0	0.9408059190565159	-0.26475785924801587	0.0	1.0333748394514193	-0.16001695601909655	0.0	1.0566711191086162	-0.05955544239539221	0.0	0.9240863102099371	-0.2777625312850138	0.0	0.9914961245147424	-0.17469153776071983	0.0	1.0419889587163165	-0.08907544266610101	0.0
2	0.0673076923076923	0.9269333027234916	-0.5561054942314627	0.0	0.9198850214540552	-0.5556367169613392	0.0	0.9203640596475492	-0.7755190475488201	0.0	0.8783264894056934	-0.9841394920283114	0.0	0.9678988290253212	-1.01854027002895	0.0	0.9467484404151828	-1.0294632630963216	0.0	0.8537795223091216	-1.013461193173216	0.0	0.9406806974982765	-0.5583499579072566	0.0	0.9543837793927425	-0.769210648037442	0.0	0.8894009037366717	-0.9580020371184054	0.0	0.9744131143868379	-0.9935752890214625	0.0	0.9645419238959163	-0.9932336310808838	0.0	0.851508398926783	-0.9865570794653238	0.0	0.9460896773272507	-0.261362045841004	0.0	0.9685559349103874	-0.12719685044793091	0.0	0.9946450124312177	-0.20034151682254936	0.0	0.9443257949487154	-0.26530039715018144	0.0	1.0403369150013455	-0.165472014842206	0.0	1.0662218996338126	-0.06209867166953438	0.0	0.9269059764509351	-0.27860882668046005	0.0	0.9984811104444414	-0.17474175306293602	0.0	1.0478527571325873	-0.08844181659720743	0.0
3	0.10096153846153846	0.9311799649846695	-0.558303946215921	0.0	0.9217245573050646	-0.5571264994196665	0.0	0.9222723860673704	-0.7753961197421834	0.0	0.8773898340817481	-0.9823066844771927	0.0	0.9666749145079133	-1.0183064852927384	0.0	0.9459499580699534	-1.0295476777646266	0.0	0.8522509762140793	-1.0112429500095743	0.0	0.9474953660414679	-0.5591440106705711	0.0	0.9790072869168355	-0.767088990113888	0.0	0.9002394383258787	-0.9528557674331558	0.0	0.980212720420555	-0.9916124522628385	0.0	0.9726716690849766	-0.9900469445696376	0.0	0.863646686575117	-0.9815945590577562	0.0	0.9499726918321796	-0.2636681775136871	0.0	0.9756416880174876	-0.12859463914693245	0.0	1.0005623475885634	-0.20263584360122264	0.0	0.9477562496379472	-0.2658967478407421	0.0	1.0485670405013527	-0.17029977166304722	0.0	1.0771532158963117	-0.06418996726988672	0.0	0.9312279685359266	-0.27965795298185864	0.0	1.0084931920219493	-0.1749767283898211	0.0	1.0565892237069034	-0.08840766243271425	0.0
4	0.1346153846153846	0.9361925141402081	-0.5603620209683441	0.0	0.9241602872299634	-0.5582431821896422	0.0	0.9237362488073112	-0.7761875662465387	0.0	0.8755712455088523	-0.9818760462496338	0.0	0.9656049159702471	-1.0193034682463766	0.0	0.9449411753773951	-1.0308266126935466	0.0	0.8501408572638911	-1.01074632328936	0.0	0.955533748351535	-0.5599745533058421	0.0	1.0035441207958624	-0.7648762003582157	0.0	0.9165644335850079	-0.9491609474504312	0.0	0.9912040624191245	-0.9904600374494834	0.0	0.9854767209586202	-0.9878398712666745	0.0	0.8829722014873345	-0.9783482570124238	0.0	0.9547220824526491	-0.2657013865819864	0.0	0.9840944205984197	-0.12959694376321665	0.0	1.007856390389549	-0.20451958926850616	0.0	0.9508584447983143	-0.2667408761424039	0.0	1.0579520398934525	-0.1754378753532591	0.0	1.090112607131822	-0.0669563981399988	0.0	0.937826267845545	-0.28087036663358	0.0	1.0221514674556484	-0.17655400724860892	0.0	1.069269785440776	-0.09012679775130136	0.0
5	0.16826923076923075	0.942307396123242	-0.5620899680701201	0.0	0.927627424780846	-0.5590261003593757	0.0	0.9254508789790613	-0.7777738424317937	0.0	0.8732287402404137	-0.9826401829140557	0.0	0.9647489413295616	-1.0211658150812923	0.0	0.9439285990641315	-1.032939514705805	0.0	0.8479000029995772	-1.0115851238895228	0.0	0.9646063602408645	-0.5607830756820842	0.0	1.0254050312926721	-0.7628430262519343	0.0	0.9390442152500152	-0.9473755252574163	0.0	1.0096385595473647	-0.990058425462357	0.0	1.0049352333720099	-0.9864988532934447	0.0	0.9094352928156766	-0.9772702514895586	0.0	0.9604718109336849	-0.2672559304793435	0.0	0.9935718492651101	-0.1303684360434554	0.0	1.0163824978705318	-0.20599410884934805	0.0	0.9536181273821447	-0.26804333876764685	0.0	1.067977524648815	-0.18225631921703325	0.0	1.10580183803549	-0.07213670180379818	0.0	0.9468991715067178	-0.28209517668112516	0.0	1.0387968226694462	-0.18108309372936038	0.0	1.0862327542756365	-0.09504607092656196	0.0
6	0.20192307692307693	0.9497653514301301	-0.5633643478842534	0.0	0.9325029228164152	-0.5596160460684377	0.0	0.9279427321368588	-0.7798762095736236	0.0	0.8709740254277124	-0.9841901201682718	0.0	0.9640523596645896	-1.0233685920412727	0.0	0.9429087076831896	-1.0353723295490787	0.0	0.8460473202656505	-1.0130145271417434	0.0	0.9745259575008463	-0.5616184666906415	0.0	1.0433041241591166	-0.7613976157216236	0.0	0.9678152703393841	-0.9476970064098946	0.0	1.0371361176842482	-0.990000603757034	0.0	1.0325676319845243	-0.9855908134076307	0.0	0.9422967214881942	-0.9783847052633576	0.0	0.9672238862032524	-0.2681577221527147	0.0	1.0035050846694347	-0.13097479068869197	0.0	1.0258857132433323	-0.20710639738389391	0.0	0.9561822828592039	-0.2700348572028383	0.0	1.0780551041401223	-0.19199789911050844	0.0	1.124844177848729	-0.08149883921756051	0.0	0.9583619089836324	-0.2833212016341936	0.0	1.0567057491666711	-0.19007845657534614	0.0	1.1070356820915122	-0.10438811881805674	0.0
7	0.23557692307692307	0.9586181926315096	-0.5641821613195275	0.0	0.938987279491922	-0.5602264037821673	0.0	0.9314078317969846	-0.7821572766580476	0.0	0.8692893404449836	-0.986010689068425	0.0	0.9631751930085776	-1.0254186909950156	0.0	0.9414940773972912	-1.0376022342002234	0.0	0.8448925638139899	-1.0142662728184424	0.0	0.9852647151233029	-0.5626966320562544	0.0	1.0574576092833528	-0.761028816333812	0.0	1.0022309252230481	-0.9499914703275925	0.0	1.07342366853045	-0.9897760425477542	0.0	1.0684284636131458	-0.9846904703152396	0.0	0.9804994774745813	-0.9813594319408379	0.0	0.9748672977620739	-0.26838207522175545	0.0	1.0133280841957057	-0.13148899336567824	0.0	1.0360000287871522	-0.20792558850229048	0.0	0.9588267442346777	-0.27292263248775206	0.0	1.0879611091104493	-0.2052476521953699	0.0	1.1476230949076964	-0.09630722498179298	0.0	0.9717979776013	-0.28486512892231636	0.0	1.0740211098298826	-0.20446820237375488	0.0	1.130816770048591	-0.1188792333056806	0.0
8	0.2692307692307692	0.9686747274781685	-0.5647157738890786	0.0	0.9470959841318441	-0.5610733240844329	0.0	0.9357846098814103	-0.7844266579495193	0.0	0.8682500295497015	-0.9876420462350078	0.0	0.9614701673285394	-1.0269301627066092	0.0	0.9390077529598854	-1.0391638821175784	0.0	0.8443712174628772	-1.0148970626661413	0.0	0.9967577825498782	-0.5643156940915331	0.0	1.0690656851818325	-0.7621310423835822	0.0	1.0405014226620772	-0.9539094658130057	0.0	1.1160559547401383	-0.9891312548695285	0.0	1.1105488148649798	-0.983685346923367	0.0	1.0223859371270831	-0.985670965384935	0.0	0.9832356966656229	-0.26813020242084606	0.0	1.0227799521983616	-0.1321028225545526	0.0	1.046327283400618	-0.20859832196392977	0.0	0.9622937808764014	-0.2766973828555488	0.0	1.0980600017748863	-0.22171880419381557	0.0	1.1740595190032914	-0.11710868357537856	0.0	0.985797429584287	-0.2872204533476559	0.0	1.0895170507164642	-0.22450896519539307	0.0	1.156690101441168	-0.13878536713300443	0.0
9	0.30288461538461536	0.9795840302015139	-0.5653058934831204	0.0	0.9567186006528993	-0.562260688574159	0.0	0.9409288133066095	-0.7867168642467184	0.0	0.8675514385317533	-0.9888596727613381	0.0	0.9584100340488558	-1.0277853045953764	0.0	0.9349514782365757	-1.0398705819825445	0.0	0.8440749245702777	-1.0148979119334258	0.0	1.0088121124723737	-0.5666512081108713	0.0	1.0796191290114494	-0.7647911075889978	0.0	1.0797861645811613	-0.9589730853006708	0.0	1.1612520570754254	-0.988196988983423	0.0	1.1552977840971412	-0.9827554181139055	0.0	1.0653927383575064	-0.9907279619468756	0.0	0.9922318485188268	-0.2678131974939751	0.0	1.0320483159115257	-0.13306138242412593	0.0	1.0566825170964407	-0.20945908607436192	0.0	0.9678702880726449	-0.2810618716379633	0.0	1.1089818937096851	-0.24066621518730943	0.0	1.2033171249944752	-0.1440525695546281	0.0	0.9981319270009102	-0.29069837583195374	0.0	1.1029729125344256	-0.24997787544773836	0.0	1.1838531700410737	-0.16419970252526356	0.0
